<?xml version="1.0" standalone="no"?>
<!DOCTYPE svg PUBLIC "-//W3C//DTD SVG 20010904//EN"
 "http://www.w3.org/TR/2001/REC-SVG-20010904/DTD/svg10.dtd">
<svg version="1.0" xmlns="http://www.w3.org/2000/svg"
 width="580.000000pt" height="580.000000pt" viewBox="0 0 580.000000 580.000000"
 preserveAspectRatio="xMidYMid meet">
<metadata>
Created by potrace 1.11, written by Peter Selinger 2001-2013
</metadata>
<g transform="translate(0.000000,580.000000) scale(0.100000,-0.100000)"
fill="#000000" stroke="none">
<path d="M2894 5792 c-7 -4 -11 -38 -10 -81 1 -85 -5 -95 -63 -105 -22 -3 -52
-16 -67 -29 -34 -30 -26 -62 22 -85 24 -11 33 -21 28 -31 -13 -34 -16 -79 -5
-99 12 -23 -1 -32 -48 -32 -34 0 -86 -45 -98 -85 -15 -50 -7 -152 15 -189 l20
-34 -102 -45 c-55 -26 -162 -74 -236 -107 -193 -87 -195 -104 -12 -105 l117 0
3 -201 2 -200 -182 -29 c-101 -15 -194 -29 -208 -31 -14 -1 -38 -5 -55 -8 -16
-3 -48 -8 -70 -11 -22 -4 -51 -8 -64 -10 -13 -2 -45 -7 -70 -10 -25 -4 -68
-10 -96 -16 -27 -5 -70 -11 -95 -14 -25 -3 -74 -10 -110 -16 -36 -6 -78 -12
-95 -15 -16 -2 -46 -6 -65 -9 -19 -3 -53 -8 -75 -10 -151 -18 -217 -53 -261
-137 -21 -41 -26 -122 -10 -168 l14 -40 -304 0 c-319 0 -342 -3 -293 -42 29
-24 34 -69 8 -75 -22 -6 -32 -30 -16 -40 17 -11 4948 -12 4969 -1 20 9 13 38
-8 38 -13 0 -19 18 -14 49 1 8 11 22 22 31 45 36 19 40 -291 40 l-299 0 13 37
c17 48 12 130 -9 172 -21 39 -73 90 -106 103 -22 8 -167 33 -310 53 -25 3 -70
10 -100 15 -30 5 -75 12 -100 15 -25 3 -56 8 -70 11 -14 2 -40 6 -58 9 -18 2
-45 6 -60 9 -15 3 -47 8 -72 11 -25 3 -52 8 -60 10 -8 2 -35 6 -60 9 -25 3
-54 8 -65 10 -19 4 -114 17 -145 21 -8 1 -46 7 -85 13 -38 7 -81 14 -95 16
-14 3 -33 5 -43 5 -16 1 -17 16 -15 204 l3 202 115 0 c118 0 143 6 134 29 -3
7 -112 61 -243 121 l-239 108 19 32 c21 35 28 125 16 187 -10 48 -59 88 -110
88 -36 0 -56 13 -37 25 13 8 6 91 -9 109 -10 12 -5 16 24 26 43 14 60 41 45
71 -13 23 -67 49 -104 49 -34 0 -39 12 -39 96 1 72 -11 101 -33 86z m99 -235
c37 -12 34 -23 -9 -32 -110 -20 -252 6 -169 32 46 14 137 14 178 0z m-35 -114
c32 -43 -9 -117 -60 -108 -66 13 -79 106 -18 128 23 9 64 -2 78 -20z m-183
-180 c-14 -49 -13 -167 1 -190 17 -27 -2 -37 -37 -19 -34 17 -49 53 -49 119 0
51 4 62 29 88 39 39 66 39 56 2z m186 13 c24 -10 35 -44 38 -112 2 -52 -1 -65
-21 -87 -28 -32 -84 -40 -126 -20 -35 17 -42 36 -42 119 0 62 14 92 50 107 17
7 77 3 101 -7z m112 2 c36 -18 44 -41 43 -122 -1 -62 -4 -70 -29 -90 -15 -12
-36 -22 -46 -22 -17 0 -18 3 -7 26 13 27 14 147 1 193 -8 30 -1 33 38 15z m57
-311 c36 -17 99 -45 140 -63 l75 -33 -440 -1 -440 0 140 65 140 64 160 0 c158
-1 161 -1 225 -32z m327 -151 c4 -3 -245 -5 -553 -5 -307 1 -546 4 -530 8 38
8 1075 5 1083 -3z m-779 -126 l3 -74 -66 68 c-36 38 -65 71 -65 75 0 4 28 7
63 6 l62 -1 3 -74z m154 61 c-4 -21 -96 -121 -102 -111 -4 7 -5 68 -1 115 1 6
23 11 54 10 37 -1 51 -5 49 -14z m235 -57 l3 -69 -60 65 c-32 36 -59 68 -60
71 0 3 26 5 57 4 l58 -1 2 -70z m183 66 c0 -7 -130 -136 -131 -130 -4 38 -2
131 4 133 16 5 127 3 127 -3z m-257 -122 l75 -86 0 -91 c0 -63 -3 -91 -11 -92
-58 -5 -305 -4 -317 2 -12 6 -15 25 -13 91 0 45 2 86 2 89 1 4 13 20 29 37 15
16 51 57 80 91 35 40 58 58 67 53 7 -4 46 -46 88 -94z m315 -83 c1 -167 -1
-185 -16 -186 -88 -5 -165 -2 -171 6 -4 6 -7 47 -6 93 l1 83 56 57 c31 31 71
74 89 95 18 20 36 37 39 37 4 0 7 -83 8 -185z m-695 68 l67 -72 0 -94 0 -94
-87 1 -88 1 -3 183 -2 183 22 -18 c13 -9 53 -50 91 -90z m-14 -307 c-7 -6
-109 -61 -198 -106 -89 -46 -106 -65 -141 -157 -23 -61 -28 -90 -29 -160 l-1
-53 -274 0 c-210 0 -275 3 -278 13 -15 40 12 151 50 203 32 43 70 65 152 88
30 9 93 27 140 41 429 126 457 134 519 134 35 1 62 -1 60 -3z m278 -236 l0
-240 -304 0 -304 0 6 63 c8 73 38 172 63 205 10 13 97 66 193 118 l174 93 86
1 86 0 0 -240z m332 173 c69 -37 147 -78 173 -91 27 -13 57 -35 68 -49 31 -39
60 -128 66 -204 l7 -69 -299 2 -299 3 -1 230 c0 127 1 233 3 238 2 4 38 7 80
7 74 0 78 -1 202 -67z m276 15 c94 -28 177 -52 185 -54 94 -23 328 -97 346
-109 58 -38 104 -140 100 -225 l-1 -35 -272 -3 -273 -2 -1 27 c-4 118 -48 254
-95 294 -18 15 -151 89 -236 131 -21 10 -38 21 -38 23 0 3 26 5 58 4 35 -1
123 -21 227 -51z m-1415 -19 c-14 -6 -32 -12 -40 -14 -46 -9 -239 -69 -260
-80 -74 -39 -128 -135 -137 -245 l-6 -70 -277 0 -278 0 -16 35 c-30 62 -23
124 21 183 29 39 65 58 123 67 25 3 52 8 60 10 8 2 38 6 65 10 28 3 57 8 65
10 8 2 35 7 60 9 36 5 287 42 480 72 19 3 53 8 75 11 22 3 42 7 44 9 2 2 14 4
25 3 19 0 18 -1 -4 -10z m1825 -19 c72 -12 145 -23 164 -25 43 -6 102 -14 126
-19 11 -2 45 -7 75 -11 30 -4 64 -9 75 -11 20 -4 62 -11 125 -19 19 -2 51 -7
70 -10 19 -3 49 -7 67 -10 18 -2 43 -7 55 -11 96 -29 145 -147 101 -239 l-17
-35 -286 0 -285 0 -2 53 c-1 71 -17 123 -52 179 -47 74 -88 93 -343 164 -61
16 -77 27 -30 19 15 -3 86 -14 157 -25z m-3325 -476 c0 -28 -3 -35 -17 -32
-31 6 -29 68 2 68 11 0 15 -10 15 -36z m128 1 c-1 -27 -6 -35 -20 -35 -14 0
-18 8 -18 35 0 28 4 35 20 35 16 0 19 -6 18 -35z m127 0 c0 -20 -6 -31 -17
-33 -15 -3 -18 4 -18 33 0 29 3 36 18 33 11 -2 17 -13 17 -33z m125 -1 c0 -28
-3 -35 -17 -32 -26 5 -27 68 -1 68 14 0 18 -8 18 -36z m128 4 c-2 -22 -9 -34
-20 -36 -15 -3 -18 4 -18 32 0 30 4 36 21 36 17 0 20 -5 17 -32z m129 -3 c-1
-27 -6 -35 -19 -35 -14 0 -18 8 -18 35 0 28 4 35 19 35 15 0 18 -7 18 -35z
m123 -1 c0 -28 -3 -35 -17 -32 -26 5 -27 68 -1 68 14 0 18 -8 18 -36z m130 1
c0 -27 -4 -35 -18 -35 -14 0 -19 8 -20 35 -1 29 2 35 18 35 16 0 20 -7 20 -35z
m128 0 c-1 -26 -7 -35 -20 -35 -14 0 -18 8 -18 35 0 29 4 35 20 35 17 0 20 -6
18 -35z m126 4 c-2 -36 -8 -43 -26 -36 -11 4 -16 43 -9 65 1 1 9 2 19 2 14 0
18 -7 16 -31z m126 -4 c0 -27 -4 -35 -18 -35 -13 0 -18 8 -19 35 0 28 3 35 18
35 15 0 19 -7 19 -35z m128 3 c-2 -22 -9 -34 -20 -36 -15 -3 -18 4 -18 32 0
30 4 36 21 36 17 0 20 -5 17 -32z m127 -3 c0 -23 -5 -30 -19 -30 -15 0 -19 8
-20 33 -1 27 2 32 19 30 15 -2 20 -11 20 -33z m125 -1 c0 -28 -3 -35 -17 -32
-12 2 -19 14 -20 36 -1 25 3 32 18 32 15 0 19 -7 19 -36z m130 0 c0 -28 -3
-35 -17 -32 -12 2 -19 14 -21 36 -3 27 0 32 17 32 17 0 21 -6 21 -36z m126 4
c-3 -36 -32 -52 -38 -21 -7 30 3 53 22 53 15 0 18 -7 16 -32z m126 15 c6 -29
-4 -54 -20 -51 -10 2 -16 16 -18 36 -2 25 1 32 16 32 10 0 20 -8 22 -17z m128
-19 c0 -28 -3 -35 -17 -32 -12 2 -19 14 -21 36 -3 27 0 32 17 32 17 0 21 -6
21 -36z m126 4 c-1 -22 -7 -34 -19 -36 -13 -3 -17 4 -17 32 0 29 4 36 19 36
15 0 18 -7 17 -32z m125 20 c-1 -5 -1 -19 -1 -33 0 -17 -5 -25 -18 -25 -17 0
-20 18 -13 63 1 10 32 5 32 -5z m129 -24 c0 -28 -3 -35 -17 -32 -12 2 -19 14
-21 36 -3 27 0 32 17 32 17 0 21 -6 21 -36z m126 4 c-1 -22 -7 -34 -19 -36
-13 -3 -17 4 -17 32 0 28 4 36 19 36 14 0 18 -7 17 -32z m125 22 c5 -42 2 -55
-14 -58 -10 -2 -18 3 -18 12 -1 9 -2 22 -3 29 -1 6 -1 15 1 20 6 11 33 9 34
-3z m129 -23 c0 -25 -5 -33 -18 -34 -15 -1 -19 6 -20 33 -1 28 2 34 18 34 16
0 20 -7 20 -33z m128 1 c-2 -21 -8 -33 -18 -33 -10 0 -16 12 -18 33 -3 27 0
32 18 32 18 0 21 -5 18 -32z m127 -3 c0 -21 -5 -31 -17 -33 -15 -3 -18 4 -18
33 0 29 4 36 17 33 11 -2 17 -13 18 -33z m125 -1 c0 -28 -3 -35 -17 -32 -11 2
-19 13 -19 28 -2 31 3 40 22 40 9 0 14 -11 14 -36z m127 -2 c2 -47 -31 -41
-35 6 -3 28 0 33 15 30 13 -2 18 -13 20 -36z m128 3 c0 -20 -6 -31 -18 -33
-14 -3 -17 4 -17 33 0 29 3 36 18 33 11 -2 17 -13 17 -33z m125 -1 c0 -28 -3
-35 -17 -32 -12 2 -18 12 -17 28 2 39 3 40 19 40 11 0 15 -11 15 -36z m130 0
c0 -28 -3 -35 -17 -32 -12 2 -19 14 -21 36 -3 27 0 32 17 32 17 0 21 -6 21
-36z m127 1 c0 -27 -4 -35 -19 -35 -14 0 -18 8 -18 35 0 27 4 35 18 35 15 0
19 -8 19 -35z m124 25 c1 -5 2 -17 2 -25 0 -30 -3 -35 -18 -35 -15 0 -17 5
-17 40 0 29 0 30 17 30 8 0 16 -4 16 -10z m129 -25 c0 -27 -4 -35 -17 -35 -13
0 -18 9 -20 35 -1 29 2 35 18 35 15 0 19 -7 19 -35z m127 3 c-2 -22 -8 -34
-20 -36 -13 -3 -17 4 -17 32 0 29 4 36 20 36 16 0 19 -6 17 -32z m126 4 c-2
-39 -3 -42 -17 -42 -14 0 -26 36 -18 58 7 22 37 9 35 -16z m127 -8 c0 -28 -4
-35 -17 -32 -26 5 -27 68 -2 68 15 0 19 -8 19 -36z m128 4 c-2 -22 -9 -34 -20
-36 -15 -3 -18 4 -18 32 0 30 4 36 21 36 17 0 20 -5 17 -32z"/>
<path d="M411 3606 c-21 -25 8 -31 149 -31 l135 -1 3 -292 c2 -278 3 -292 21
-292 23 0 28 22 26 123 -1 42 0 77 2 77 11 0 61 -31 72 -44 9 -11 10 -24 1
-58 -29 -104 -19 -115 61 -72 l52 29 28 -35 c29 -34 37 -64 21 -74 -5 -3 -21
-23 -36 -44 -39 -57 -30 -68 52 -64 l67 4 16 -47 17 -46 -42 -30 c-80 -58 -82
-60 -61 -75 10 -7 42 -19 71 -25 30 -7 54 -13 54 -13 1 -1 3 -26 6 -56 2 -30
7 -66 11 -80 3 -14 7 -63 7 -110 1 -63 6 -91 19 -110 14 -20 17 -48 17 -166 0
-91 4 -144 11 -146 7 -2 10 -203 10 -642 l0 -639 -27 -28 c-27 -28 -28 -33
-30 -154 l-2 -125 1759 0 1759 0 0 118 c0 118 -9 152 -46 174 -15 10 -17 1277
-2 1296 6 7 11 70 11 150 0 112 3 140 16 156 11 13 18 48 23 120 8 119 17 216
23 233 2 6 27 16 56 22 51 11 79 26 79 41 0 4 -24 24 -54 45 l-54 37 16 49 16
50 64 -2 c85 -3 91 10 42 75 -41 54 -41 56 3 110 l24 29 51 -29 c67 -37 81
-27 64 47 -18 75 -16 83 27 107 21 12 41 22 43 22 2 0 3 -39 3 -87 -2 -103 1
-113 26 -113 18 0 19 12 19 290 0 225 3 290 13 291 6 1 66 2 132 3 125 1 148
7 138 31 -8 22 -4964 23 -4982 1z m1742 -110 c-1 -22 -2 -46 -2 -53 -1 -7 -18
-1 -44 16 -56 39 -80 66 -75 88 7 37 68 22 68 -17 0 -21 26 -34 37 -17 4 6 6
25 6 42 -1 26 -1 27 5 6 4 -13 6 -42 5 -65z m74 7 c12 -4 36 31 27 40 -9 9 36
29 52 23 21 -8 17 -40 -8 -62 -36 -31 -89 -67 -93 -63 -5 5 -8 88 -5 119 2 19
4 15 9 -14 3 -22 11 -41 18 -43z m657 62 c3 -8 1 -15 -4 -15 -6 0 -10 7 -10
15 0 8 2 15 4 15 2 0 6 -7 10 -15z m776 -22 c-11 -17 -11 -17 -6 0 3 10 6 24
7 30 0 9 2 9 5 0 3 -7 0 -20 -6 -30z m314 -42 l1 -70 -35 21 c-48 28 -92 76
-88 96 7 37 68 20 68 -19 0 -10 5 -21 12 -25 17 -11 38 26 31 55 -3 14 -2 23
2 19 5 -5 9 -39 9 -77z m74 1 c7 -2 18 9 25 27 17 47 67 55 67 11 0 -16 -96
-100 -115 -100 -3 0 -4 33 -4 73 2 56 3 64 8 33 3 -22 12 -41 19 -44z m-3294
53 c-4 -8 -8 -15 -10 -15 -2 0 -4 7 -4 15 0 8 4 15 10 15 5 0 7 -7 4 -15z
m110 -1 c4 -10 -1 -25 -11 -37 -18 -20 -102 -80 -104 -75 -1 2 -2 22 -3 46 -2
37 0 41 11 26 10 -14 15 -15 28 -4 8 7 13 15 10 18 -9 9 27 42 45 42 10 0 21
-7 24 -16z m127 6 c10 -6 19 -19 19 -29 0 -23 23 -34 39 -18 15 15 17 8 11
-40 l-5 -43 -49 38 c-57 43 -72 63 -63 86 7 19 20 20 48 6z m72 -5 c4 -8 2
-17 -2 -20 -5 -2 -11 4 -14 15 -6 23 8 27 16 5z m55 -10 c-6 -26 14 -51 32
-40 5 3 10 15 10 26 0 24 45 48 61 32 19 -19 -1 -53 -54 -88 -29 -19 -54 -35
-57 -35 -3 0 -5 29 -5 65 0 36 4 65 8 65 5 0 7 -11 5 -25z m243 9 c7 -9 14
-23 15 -31 4 -24 13 -27 31 -10 17 15 18 13 20 -33 l1 -49 -51 32 c-72 46 -99
107 -48 107 10 0 25 -7 32 -16z m69 0 c0 -8 -4 -12 -10 -9 -5 3 -10 10 -10 16
0 5 5 9 10 9 6 0 10 -7 10 -16z m53 -6 c-2 -13 1 -29 6 -37 8 -12 12 -12 25
-2 9 7 14 17 11 21 -7 11 23 40 39 40 26 0 36 -25 20 -48 -14 -20 -96 -82
-108 -82 -3 0 -6 29 -6 65 0 36 4 65 9 65 4 0 6 -10 4 -22z m232 14 c6 -4 16
-20 23 -35 16 -36 37 -30 37 11 0 18 3 32 7 32 5 0 8 -31 8 -70 l0 -70 -30 19
c-50 30 -90 70 -90 89 0 30 22 41 45 24z m135 -1 c0 -6 -4 -13 -10 -16 -5 -3
-10 1 -10 9 0 9 5 16 10 16 6 0 10 -4 10 -9z m106 -5 c8 -20 -23 -59 -72 -90
-23 -14 -43 -26 -45 -26 -3 0 -5 20 -5 45 -1 44 0 45 18 28 17 -15 20 -15 28
-3 6 8 10 20 10 26 0 30 56 47 66 20z m488 8 c9 -3 16 -14 16 -24 0 -22 25
-44 41 -35 6 4 9 19 5 36 -3 16 -1 29 4 29 6 0 9 -30 9 -70 l-1 -69 -27 17
c-74 46 -105 81 -95 106 6 17 22 20 48 10z m136 -3 c0 -6 -4 -13 -10 -16 -5
-3 -10 1 -10 9 0 9 5 16 10 16 6 0 10 -4 10 -9z m105 0 c11 -18 -17 -56 -64
-88 -26 -18 -49 -33 -52 -33 -3 0 -5 20 -5 45 -1 49 3 54 21 29 10 -14 14 -12
33 20 21 35 53 48 67 27z m133 -3 c7 -7 12 -20 12 -29 0 -26 31 -33 37 -9 10
37 18 21 18 -35 0 -30 -2 -55 -5 -55 -10 0 -103 75 -113 91 -22 36 21 67 51
37z m122 -8 c0 -11 -2 -20 -4 -20 -2 0 -6 9 -9 20 -3 11 -1 20 4 20 5 0 9 -9
9 -20z m108 -2 c4 -18 -39 -63 -86 -90 l-30 -18 -4 40 c-4 42 0 48 19 29 15
-15 33 -3 33 21 0 36 61 52 68 18z m139 -8 c7 -14 14 -29 16 -33 1 -5 10 -5
20 -2 12 5 16 15 12 36 -3 16 -1 29 4 29 5 0 8 -29 8 -65 0 -36 -5 -65 -10
-65 -5 0 -29 15 -54 33 -43 30 -69 69 -58 86 10 17 50 5 62 -19z m118 -2 c0
-42 23 -48 38 -9 18 49 75 53 65 5 -3 -17 -94 -94 -110 -94 -5 0 -8 29 -8 65
0 36 3 65 8 65 4 0 7 -14 7 -32z m230 24 c6 -4 16 -20 23 -35 16 -36 37 -30
37 11 0 18 3 32 7 32 5 0 8 -29 8 -65 0 -36 -4 -65 -8 -65 -12 0 -95 60 -109
79 -21 29 13 64 42 43z m239 0 c12 -19 -8 -49 -56 -84 -27 -21 -54 -36 -58
-33 -5 3 -7 18 -5 33 2 15 4 31 4 37 1 5 6 4 12 -2 15 -15 39 -5 39 16 0 32
49 57 64 33z m498 -10 c10 -8 15 -18 13 -22 -3 -4 2 -14 11 -21 14 -11 18 -10
30 6 13 17 14 15 13 -28 -1 -26 -5 -47 -9 -47 -14 0 -91 56 -105 77 -28 40 9
68 47 35z m68 3 c0 -8 -2 -15 -4 -15 -2 0 -6 7 -10 15 -3 8 -1 15 4 15 6 0 10
-7 10 -15z m55 -17 c0 -42 23 -44 45 -3 18 32 37 40 59 26 12 -8 12 -13 -2
-35 -14 -20 -97 -86 -109 -86 -2 0 -5 29 -6 65 -1 36 1 65 5 65 5 0 8 -15 8
-32z m236 22 c10 -6 19 -19 19 -30 0 -24 17 -35 34 -21 11 9 15 4 18 -24 2
-20 0 -39 -4 -41 -19 -12 -118 69 -118 96 0 31 18 37 51 20z m76 -10 c1 -11
-2 -20 -5 -20 -4 0 -8 9 -9 20 -1 11 2 20 5 20 4 0 8 -9 9 -20z m45 -12 c-8
-8 -9 -4 -5 13 4 13 8 18 11 10 2 -7 -1 -18 -6 -23z m114 17 c10 -24 -24 -60
-103 -109 -10 -5 -13 4 -13 35 0 35 2 40 15 29 18 -15 35 -5 35 20 0 33 55 54
66 25z m143 -23 c14 -30 41 -45 41 -22 0 6 4 10 8 10 4 0 8 -18 7 -40 0 -22
-4 -40 -9 -40 -15 0 -104 69 -110 86 -8 21 12 46 33 42 9 -2 22 -18 30 -36z
m58 16 c2 -18 0 -20 -7 -8 -12 18 -13 30 -2 30 4 0 9 -10 9 -22z m-4136 -78
c19 -17 54 -45 79 -63 49 -36 60 -65 36 -101 -34 -52 -121 -35 -114 22 2 20 9
28 27 30 20 3 23 1 17 -15 -13 -32 -11 -37 10 -41 13 -2 25 5 33 21 28 53 -22
101 -84 78 -25 -9 -40 -9 -54 -1 -11 5 -30 8 -43 6 -13 -3 -26 -5 -30 -5 -4
-1 -15 -12 -24 -26 -15 -23 -15 -27 0 -50 27 -41 69 -27 46 15 -9 18 -8 20 14
20 45 0 46 -58 0 -78 -46 -22 -104 17 -98 66 3 27 26 51 93 97 24 16 45 35 48
42 7 17 5 18 44 -17z m441 -60 c64 -43 71 -92 18 -123 -36 -22 -52 -21 -80 3
-30 26 -21 70 15 70 14 0 25 -4 25 -10 0 -5 -4 -10 -10 -10 -15 0 -12 -37 4
-43 15 -6 39 16 49 46 5 12 -2 27 -19 44 -20 20 -31 24 -57 18 -37 -7 -59 -8
-106 -1 -26 3 -39 -1 -58 -20 -23 -23 -23 -25 -8 -54 10 -19 23 -30 37 -30 18
0 20 4 14 31 -5 27 -3 30 17 27 17 -2 22 -10 22 -33 0 -23 -7 -33 -29 -44 -26
-12 -33 -12 -55 0 -14 8 -31 25 -37 38 -18 35 -1 63 66 110 31 22 62 47 70 56
11 13 17 11 49 -17 20 -18 53 -44 73 -58z m351 11 c65 -39 82 -80 50 -120 -27
-32 -67 -36 -99 -8 -23 20 -25 26 -15 45 6 12 21 22 31 22 21 0 27 -15 10 -25
-5 -3 -10 -13 -10 -21 0 -20 34 -17 55 6 40 44 -17 105 -77 82 -24 -9 -41 -9
-69 0 -32 9 -42 8 -64 -6 -14 -10 -29 -24 -32 -32 -7 -18 23 -64 42 -64 20 0
29 20 16 33 -17 17 -13 29 10 25 12 -2 27 -11 33 -21 9 -15 6 -23 -18 -43 -34
-30 -70 -26 -98 9 -32 40 -23 62 51 121 39 31 73 61 76 67 5 7 19 0 39 -19 17
-16 48 -39 69 -51z m283 65 c3 -8 33 -33 67 -57 72 -50 77 -55 77 -91 0 -51
-74 -82 -116 -47 -8 7 -14 24 -12 38 2 20 9 27 31 29 31 4 35 -5 10 -23 -9 -7
-13 -17 -9 -23 21 -35 80 15 65 55 -11 29 -39 43 -75 37 -37 -7 -61 -7 -99 0
-64 11 -102 -48 -59 -91 13 -13 29 -21 34 -18 13 8 13 45 -1 45 -5 0 -7 5 -4
10 8 13 42 13 50 -1 13 -20 -5 -60 -32 -70 -55 -21 -112 34 -92 88 4 12 35 40
69 63 34 23 64 48 67 56 7 18 22 18 29 0z m456 -75 c26 -17 49 -40 53 -50 9
-28 -14 -68 -47 -82 -25 -10 -33 -9 -56 8 -38 28 -41 60 -7 69 30 8 44 -1 27
-18 -18 -18 -14 -38 8 -38 23 0 55 43 47 64 -3 8 -17 22 -31 31 -20 14 -31 14
-66 5 -30 -8 -45 -8 -55 0 -24 20 -91 -1 -101 -32 -8 -26 14 -68 37 -68 23 0
34 19 20 33 -16 16 -13 27 8 27 47 0 43 -62 -4 -80 -37 -14 -43 -13 -70 15
-41 40 -33 69 31 118 31 23 66 52 77 65 l21 22 30 -28 c17 -16 52 -43 78 -61z
m275 71 c6 -11 36 -36 67 -56 82 -54 98 -97 50 -135 -44 -35 -108 -11 -102 38
2 18 10 27 26 29 25 4 27 -1 12 -28 -12 -23 1 -34 30 -25 22 7 34 37 25 63 -7
24 -48 43 -77 35 -25 -6 -47 -6 -96 1 -37 5 -70 -17 -76 -51 -5 -26 27 -58 49
-50 17 7 21 37 5 37 -5 0 -10 5 -10 10 0 18 48 11 55 -9 10 -34 -9 -58 -54
-67 -30 -6 -72 29 -77 65 -4 26 14 47 81 96 36 26 65 52 65 57 0 14 15 9 27
-10z m446 -67 c54 -34 70 -62 53 -96 -24 -49 -93 -58 -116 -14 -17 32 -6 55
27 55 21 0 24 -3 15 -12 -19 -19 -15 -48 7 -48 24 0 52 37 44 59 -14 37 -35
51 -72 45 -40 -7 -59 -7 -110 0 -67 9 -104 -70 -44 -97 35 -16 53 5 27 34 -19
21 -19 21 11 17 24 -2 31 -8 33 -29 6 -49 -53 -71 -99 -38 -20 14 -29 29 -29
49 0 30 9 40 100 113 l55 44 27 -27 c15 -14 47 -39 71 -55z m369 -4 c27 -18
50 -42 54 -55 12 -51 -41 -95 -91 -76 -48 18 -50 80 -4 80 21 0 24 -11 8 -27
-15 -15 -3 -33 21 -33 24 0 43 35 36 65 -9 36 -77 54 -115 31 -5 -3 -23 -1
-40 5 -36 13 -85 -2 -96 -28 -7 -19 4 -55 19 -65 22 -15 46 -8 46 12 0 11 -4
20 -10 20 -5 0 -10 5 -10 10 0 15 36 12 50 -5 16 -19 8 -40 -25 -61 -21 -14
-30 -15 -56 -4 -33 14 -53 51 -43 82 3 10 37 42 75 69 38 28 69 56 69 62 0 6
15 -3 33 -20 17 -16 53 -44 79 -62z m360 2 c26 -17 51 -40 57 -50 13 -26 -6
-64 -42 -81 -22 -11 -31 -10 -57 3 -25 13 -31 22 -28 43 2 22 9 28 33 30 28 4
29 3 13 -15 -10 -11 -14 -24 -9 -32 22 -36 80 23 60 61 -15 29 -58 42 -94 29
-21 -8 -38 -8 -60 0 -61 22 -121 -33 -89 -80 17 -23 50 -28 57 -8 2 6 -3 20
-12 30 -15 18 -14 19 14 15 39 -4 45 -38 14 -67 -56 -52 -149 33 -97 89 10 11
43 38 73 60 29 22 56 44 60 50 4 6 17 -1 33 -17 15 -16 48 -42 74 -60z m370
-3 c26 -18 49 -39 52 -47 10 -26 -6 -63 -33 -77 -33 -17 -59 -13 -85 13 -16
17 -18 25 -10 39 12 19 54 29 54 13 0 -6 -4 -11 -10 -11 -14 0 -13 -23 2 -38
9 -9 17 -7 35 10 29 27 29 49 1 75 -17 15 -33 19 -58 17 -19 -2 -46 -4 -60 -4
-14 0 -41 1 -60 1 -67 0 -86 -81 -23 -97 31 -8 40 2 25 26 -16 26 -15 30 7 30
27 0 40 -21 30 -47 -25 -66 -129 -39 -129 34 0 16 17 36 56 66 31 23 66 52 77
65 l21 22 30 -28 c17 -16 52 -44 78 -62z m289 60 c19 -17 54 -45 79 -63 34
-24 46 -41 48 -63 6 -61 -80 -93 -119 -45 -22 27 -10 61 21 61 22 0 26 -10 9
-27 -14 -14 -3 -33 20 -33 25 0 41 20 41 52 0 36 -39 63 -78 53 -31 -8 -52 -8
-103 -1 -27 4 -42 0 -57 -14 -32 -30 -12 -90 29 -90 22 0 26 29 7 48 -9 9 -6
12 14 12 48 0 46 -54 -3 -80 -29 -16 -76 7 -88 42 -14 40 1 64 66 106 26 17
55 40 63 51 8 12 15 21 16 21 0 0 16 -14 35 -30z m432 -55 c54 -33 71 -65 56
-99 -16 -35 -55 -50 -91 -35 -28 11 -46 48 -33 68 8 14 42 14 50 1 3 -5 1 -10
-4 -10 -6 0 -11 -9 -11 -20 0 -29 36 -26 56 5 15 23 15 27 0 50 -20 30 -59 41
-93 26 -19 -9 -33 -9 -60 1 -28 10 -39 10 -60 -2 -41 -24 -48 -56 -17 -85 32
-30 48 -23 40 16 -4 24 -2 29 14 29 40 0 35 -65 -6 -80 -69 -27 -127 64 -71
110 12 11 47 39 77 63 l55 44 27 -27 c15 -14 47 -39 71 -55z m-3820 -204 c16
-1 17 -21 15 -323 -2 -246 -6 -322 -15 -326 -8 -2 -13 5 -13 20 0 35 -27 156
-48 218 -53 153 -148 288 -266 376 l-40 29 130 5 c112 4 158 5 237 1z m993 0
c16 -1 13 -639 -3 -645 -7 -3 -14 -2 -17 2 -3 6 -18 103 -19 122 0 17 -41 119
-64 161 -35 65 -120 143 -177 162 -64 22 -160 16 -215 -12 -105 -55 -187 -185
-217 -346 -10 -49 -18 -91 -19 -93 -1 -1 -8 0 -16 3 -12 4 -14 59 -14 325 l0
319 30 3 c25 3 697 1 731 -1z m1193 0 c19 -1 31 -4 27 -8 -10 -10 -996 -10
-996 -1 0 4 26 8 58 10 48 3 803 2 911 -1z m1010 0 c13 -1 21 -4 17 -8 -10
-10 -736 -10 -736 -1 0 11 486 16 719 9z m486 0 l130 -2 -30 -21 c-55 -39
-160 -153 -196 -213 -64 -109 -124 -282 -133 -388 0 -9 -4 -17 -8 -17 -5 0
-12 0 -17 0 -4 0 -8 144 -8 319 l0 320 31 3 c17 2 47 2 66 2 19 -1 94 -2 165
-3z m-3497 -323 l-3 -322 -47 1 c-27 0 -54 1 -61 2 -10 1 -12 69 -11 319 1
174 2 318 3 320 0 1 28 2 61 2 l60 0 -2 -322z m987 0 c0 -277 -2 -318 -15
-319 -21 -2 -72 -2 -92 0 -17 1 -18 23 -18 321 l0 321 62 -3 63 -3 0 -317z
m1212 2 c0 -319 0 -320 -21 -321 -36 -2 -78 0 -90 4 -8 3 -11 93 -10 318 1
173 2 315 3 317 0 1 27 2 60 2 l58 0 0 -320z m989 -2 c0 -175 -3 -318 -8 -319
-4 -1 -19 -1 -33 -1 -14 0 -38 0 -53 1 l-29 1 1 320 0 321 61 -3 60 -3 1 -317z
m-1158 -30 c-2 -211 -6 -292 -15 -295 -7 -3 -16 18 -23 54 -16 81 -38 139 -75
198 -113 178 -319 256 -516 196 -180 -56 -298 -201 -334 -411 -7 -41 -12 -47
-26 -33 -9 9 -15 409 -10 566 1 16 32 17 501 17 l500 0 -2 -292z m991 2 c0
-159 -1 -290 -4 -290 -2 0 -10 -3 -19 -6 -12 -5 -16 1 -16 22 -1 59 -31 171
-65 241 -83 169 -249 245 -390 179 -127 -59 -205 -181 -235 -368 -7 -43 -16
-78 -19 -78 -24 1 -27 31 -25 295 1 154 2 283 3 288 0 4 174 7 386 7 l384 0 0
-290z m-3505 234 c13 -5 14 -9 5 -20 -16 -20 -29 -17 -29 6 0 22 1 23 24 14z
m4062 -31 c-10 -10 -34 11 -29 24 5 14 8 13 20 -2 7 -10 11 -20 9 -22z m-3122
-79 c12 -5 16 -21 16 -69 0 -98 29 -104 87 -17 17 25 35 28 51 10 7 -9 3 -34
-11 -81 -25 -85 -18 -97 46 -69 l46 20 10 -30 c10 -27 7 -34 -25 -73 -32 -39
-33 -44 -19 -59 9 -9 20 -14 25 -11 5 3 20 1 34 -5 24 -9 26 -14 26 -74 0 -36
4 -67 8 -70 5 -3 9 -48 10 -101 1 -77 4 -100 20 -119 16 -21 18 -41 17 -157
-1 -81 3 -140 9 -148 8 -10 11 -219 12 -650 l0 -636 -28 -28 c-29 -28 -31 -37
-29 -140 l1 -57 -330 0 -330 0 0 84 c0 79 -2 86 -28 111 l-28 26 1 637 c0 390
4 643 10 652 5 8 10 76 10 152 1 103 5 140 16 154 9 11 16 53 21 118 11 167
19 231 31 238 6 3 29 9 53 13 23 3 44 12 47 19 3 7 -14 35 -37 62 -35 40 -42
53 -35 72 10 27 15 27 73 1 72 -31 82 -12 45 86 -34 92 -5 116 52 43 19 -24
38 -46 43 -50 20 -14 33 13 35 74 2 79 7 87 45 72z m1113 -2 c7 -4 13 -35 14
-69 1 -40 7 -64 15 -67 8 -3 39 17 70 44 55 46 59 48 81 33 29 -19 29 -20 -2
-94 -14 -33 -23 -64 -20 -69 7 -11 57 -5 84 9 9 5 28 11 43 15 23 5 30 2 42
-21 14 -27 13 -29 -37 -75 -65 -58 -56 -73 51 -80 18 -1 35 -5 37 -8 2 -3 6
-36 10 -75 3 -38 9 -74 13 -79 3 -6 6 -49 7 -96 0 -64 5 -94 18 -113 14 -22
17 -51 17 -166 0 -82 4 -142 10 -146 6 -4 10 -229 10 -643 l0 -636 -27 -28
c-25 -26 -27 -35 -28 -111 l-1 -82 -444 0 -445 0 0 75 c0 76 -12 111 -41 128
-15 8 -17 70 -17 653 0 484 3 644 12 647 8 3 11 44 10 142 -1 117 2 142 17
165 13 21 18 50 20 114 0 47 4 97 7 111 3 14 9 50 12 79 3 30 8 57 11 60 5 5
33 10 82 15 61 5 62 22 4 77 -44 42 -51 53 -42 69 16 31 26 32 95 9 89 -28 96
-20 59 67 l-28 67 23 18 c13 11 26 19 30 19 3 0 26 -20 52 -43 47 -45 75 -61
83 -49 2 4 5 34 7 67 1 33 3 62 5 65 4 8 68 10 81 2z m1090 -66 c3 -94 16
-100 76 -34 43 49 48 52 61 36 11 -15 10 -28 -9 -85 -29 -89 -20 -103 49 -73
52 22 61 21 69 -9 3 -13 -9 -35 -35 -67 -21 -26 -37 -52 -35 -58 2 -6 24 -15
50 -21 25 -5 48 -13 51 -16 8 -8 16 -79 23 -209 4 -77 10 -114 24 -138 16 -28
19 -54 19 -172 0 -82 4 -141 10 -145 6 -4 10 -229 10 -643 l0 -636 -27 -29
c-25 -25 -28 -37 -32 -113 l-3 -84 -329 0 -329 0 0 83 c0 77 -2 85 -28 114
l-29 31 1 633 c1 431 4 640 12 654 6 12 10 71 9 145 -2 100 1 130 14 150 10
16 18 61 23 125 11 160 19 230 26 237 6 6 47 15 80 17 22 2 13 32 -23 76 -31
37 -34 46 -25 69 l9 26 52 -21 c33 -13 56 -16 62 -10 6 6 1 36 -13 82 -22 70
-22 73 -4 86 16 12 21 10 44 -19 66 -86 84 -84 85 10 1 68 9 84 38 80 20 -3
22 -10 24 -72z m-2290 33 c1 -12 -3 -19 -10 -16 -17 5 -21 37 -5 37 8 0 14 -9
15 -21z m161 -16 c-15 -15 -16 -15 -13 3 2 10 4 23 4 29 1 5 6 4 13 -3 10 -9
9 -16 -4 -29z m912 19 c0 -28 -10 -32 -29 -14 -21 20 -17 32 10 32 12 0 19 -7
19 -18z m218 10 c9 -7 8 -13 -8 -27 -11 -10 -21 -16 -21 -14 -13 40 1 58 29
41z m892 -13 c0 -18 -2 -20 -15 -9 -13 11 -13 15 -3 21 18 12 18 12 18 -12z
m173 -4 c-3 -8 -9 -15 -14 -15 -10 0 -12 24 -3 33 11 11 24 -3 17 -18z m-3060
-49 c7 -19 0 -25 -24 -19 -15 4 -17 8 -8 19 15 18 25 18 32 0z m3772 -17 c-9
-14 -34 2 -28 17 4 11 9 12 19 3 8 -6 11 -15 9 -20z m-2165 -55 c0 -10 -7 -11
-31 -2 -29 10 -29 11 -12 30 16 18 18 18 30 2 7 -10 13 -23 13 -30z m570 11
c0 -7 -11 -15 -25 -17 -29 -6 -29 -7 -13 26 9 20 14 23 25 15 7 -6 13 -17 13
-24z m-1606 9 c13 -33 4 -42 -22 -26 -7 5 -10 16 -6 25 8 21 20 22 28 1z
m2615 -25 c-24 -15 -29 -10 -17 16 10 23 13 24 21 9 6 -11 5 -19 -4 -25z
m-424 -7 c-1 -1 -10 0 -19 4 -13 5 -14 9 -4 21 10 13 13 13 19 -4 3 -10 5 -19
4 -21z m-1764 5 c-13 -13 -26 -3 -16 12 3 6 11 8 17 5 6 -4 6 -10 -1 -17z
m509 -159 c0 -5 -11 -8 -24 -8 -19 0 -23 4 -19 19 4 17 8 18 24 8 10 -6 19
-15 19 -19z m-1430 3 c0 -14 -6 -17 -27 -13 -25 5 -25 6 -8 18 25 19 35 17 35
-5z m418 -12 c-21 -14 -26 -10 -21 11 4 16 8 18 20 9 11 -10 11 -14 1 -20z
m1772 16 c0 -8 -7 -15 -15 -15 -16 0 -20 12 -8 23 11 12 23 8 23 -8z m1428 -3
c2 -7 -5 -12 -17 -12 -14 0 -19 5 -14 15 6 17 25 15 31 -3z m-428 -7 c0 -9 -6
-12 -15 -9 -8 4 -12 10 -9 15 8 14 24 10 24 -6z m-580 -5 c0 -5 -5 -10 -11
-10 -5 0 -7 5 -4 10 3 6 8 10 11 10 2 0 4 -4 4 -10z m-2282 -157 c5 -33 -21
-40 -141 -38 -104 1 -126 7 -127 36 0 27 87 39 205 29 52 -4 60 -8 63 -27z
m979 14 c15 -15 8 -46 -11 -48 -6 -1 -56 -2 -111 -4 -114 -2 -153 11 -135 45
8 14 23 20 63 22 94 5 181 -1 194 -15z m1211 8 c18 -7 15 -43 -5 -53 -10 -5
-63 -8 -118 -6 -127 2 -122 1 -129 19 -11 28 5 44 47 47 52 4 188 -1 205 -7z
m1000 -22 c2 -13 -4 -25 -15 -30 -15 -8 -131 -10 -219 -4 -24 1 -37 23 -28 46
5 13 27 15 133 13 121 -3 126 -4 129 -25z m-3204 -145 c-1 -35 -2 -69 -3 -75
-3 -33 -111 -57 -172 -38 -49 15 -59 33 -59 107 l0 68 118 0 118 0 -2 -62z
m986 -6 c0 -95 -14 -107 -122 -107 -102 0 -118 15 -118 111 l0 64 120 0 120 0
0 -68z m1211 61 c7 -41 3 -127 -6 -139 -18 -25 -102 -43 -149 -32 -65 15 -76
31 -76 110 l0 68 115 0 c63 0 116 -3 116 -7z m994 -53 c2 -74 -7 -95 -46 -109
-76 -26 -175 -7 -186 37 -5 22 -8 94 -4 125 1 4 54 6 118 5 l117 -3 1 -55z
m-3225 -272 c0 -79 -3 -108 -12 -109 -56 -3 -136 -1 -144 4 -7 4 -12 211 -5
212 0 0 37 1 81 1 l80 0 0 -108z m985 8 c0 -56 -3 -105 -7 -111 -5 -9 -34 -10
-140 -6 -16 1 -18 13 -18 109 l0 107 83 1 83 0 -1 -100z m1215 -9 l0 -108 -82
3 -82 3 -1 105 -1 105 83 0 83 0 0 -108z m985 2 l0 -104 -81 -3 -81 -3 0 109
1 108 81 -1 80 -2 0 -104z m-3217 -158 c9 -1 12 -134 12 -631 l0 -630 -63 0
-62 0 0 623 c0 342 3 627 7 632 5 8 44 11 106 6z m989 -5 c5 -4 8 -289 8 -632
l0 -624 -62 0 -63 0 0 629 c0 590 1 630 17 633 30 6 93 2 100 -6z m1220 -627
l0 -629 -61 0 -61 0 0 627 c0 482 3 629 12 633 7 3 34 3 61 2 l49 -4 0 -629z
m979 632 c7 -1 10 -194 10 -631 l0 -630 -61 0 -61 0 0 626 c1 607 2 627 20
634 16 5 33 6 92 1z m-3146 -1329 c22 -17 25 -27 26 -78 0 -32 -2 -64 -4 -71
-2 -8 -40 -12 -118 -12 l-114 -1 0 74 c0 66 2 75 23 89 31 20 53 24 112 20 29
-2 60 -11 75 -21z m971 8 c35 -19 39 -28 39 -101 l0 -67 -120 0 -120 0 0 67
c0 73 10 90 60 109 33 12 111 8 141 -8z m1211 1 c37 -14 46 -36 44 -106 l-2
-60 -117 -3 -117 -2 0 74 c0 66 2 75 23 89 13 8 32 17 42 19 30 6 97 1 127
-11z m991 0 c15 -6 30 -17 33 -25 7 -18 12 -118 7 -133 -3 -8 -41 -11 -119
-12 -100 0 -114 2 -115 17 -5 83 0 124 17 137 41 32 120 39 177 16z"/>
<path d="M1044 241 c-2 -2 -4 -19 -4 -38 l0 -33 1860 0 1860 1 0 37 0 37
-1856 0 c-1021 0 -1858 -2 -1860 -4z"/>
<path d="M850 39 l0 -39 2051 0 2050 0 -3 38 -3 37 -2047 1 -2048 1 0 -38z"/>
</g>
</svg>
